<?xml version="1.0" encoding="UTF-8"?>
<svg width="80px" height="80px" viewBox="0 0 80 80" version="1.1" xmlns="http://www.w3.org/2000/svg" xmlns:xlink="http://www.w3.org/1999/xlink">
    <title>Icon-Scissors</title>
    <g id="Symbols" stroke="none" stroke-width="1" fill="none" fill-rule="evenodd">
        <g id="Icon-Scissors">
            <path d="M30.8516832,45.8473762 L33.3153119,55.0432673 C33.8960257,54.2488515 34.5370545,53.4972327 35.2359653,52.8008317 C36.1133366,51.9234604 37.0359505,51.0939059 38.001297,50.3145495 L31.3069406,45.4048614 L30.8516832,45.8473762 Z" id="Path" fill="#FFFFFF"></path>
            <path d="M49.5228366,45.7794158 L13.3622426,10.6826337 L13.3622426,21.4900099 C13.3622426,26.6158713 17.2261386,31.7542178 21.3591733,34.7860495 L41.0631832,49.236 C42.5036733,50.2918317 43.8612079,51.4557822 45.1231733,52.7178119 C45.827104,53.4217426 46.4731782,54.1783812 47.0563762,54.9803267 L49.5228366,45.7794158 Z" id="Path" fill="#FFFFFF"></path>
            <path d="M42.1598168,34.8690693 L49.3973416,41.9103069 L59.0006089,34.8690693 C63.1335149,31.837302 66.9949653,26.6964455 66.9949653,21.5730297 L66.9949653,10.7630792 L42.1598168,34.8690693 Z" id="Path" fill="#FFFFFF"></path>
            <path d="M37.1914356,54.6358911 C36.0702178,55.7571089 35.1098911,57.0291782 34.3406386,58.4168317 L31.8820297,62.8413366 C31.4094089,65.123995 30.2856683,67.2306386 28.5988218,68.9174851 C26.2432475,71.2730594 23.1536881,72.3565644 20.0664455,72.3565644 C16.979203,72.3565644 13.8897079,71.2730594 11.5340693,68.9174851 C6.82047525,64.2038911 6.82047525,56.5642673 11.5340693,51.8527327 C14.5357178,48.8485743 18.8217921,47.6972376 22.8241188,48.6349109 L27.8067228,45.060104 L29.1089109,43.7930545 L19.7720792,36.9474604 C14.9503663,33.4128762 10.6817327,27.3873119 10.6817327,21.4066683 L10.6817327,10.5992921 C10.6817327,9.11857921 11.8808861,7.99987129 13.361599,7.99987129 C14.0730594,7.99987129 14.7568465,8.20098515 15.259599,8.70380198 L40.2202426,32.9835545 L65.0978663,8.78424752 C65.600651,8.28146287 66.281896,7.99987129 66.9933564,7.99987129 C68.4740693,7.99987129 69.6757327,9.20153465 69.6757327,10.6822475 L69.6757327,21.4896238 C69.6757327,27.4702673 65.4045891,33.4933861 60.5828119,37.0304158 L51.3444455,43.8052178 L52.5511287,44.9792079 L57.5312228,48.551505 C61.5359307,47.6138317 65.8196881,48.767704 68.8238465,51.7693267 C73.5349307,56.4804109 73.5349307,64.1225446 68.8238465,68.8340792 C66.4657624,71.1896535 63.3787129,72.3686634 60.2914703,72.3686634 C57.2018465,72.3686634 54.1147327,71.1896535 51.7590941,68.8340792 C50.0722475,67.1497426 48.9485198,65.0405891 48.4758861,62.7579307 L46.0172772,58.3334257 C45.2455149,56.9482822 44.287698,55.6762129 43.1639703,54.5524851 C42.2413564,53.6298713 41.2609505,52.7651139 40.2302178,51.9656782 C39.1617723,52.7902129 38.1461634,53.680198 37.1908564,54.6354406 L37.1914356,54.6358911 Z M20.0668317,64.3118812 C22.2891238,64.3118812 24.0891089,62.511896 24.0891089,60.289604 C24.0891089,58.0673119 22.2891238,56.2673267 20.0668317,56.2673267 C17.8445396,56.2673267 16.0445545,58.0673119 16.0445545,60.289604 C16.0445545,62.511896 17.8445396,64.3118812 20.0668317,64.3118812 Z M60.289604,64.3118812 C62.511896,64.3118812 64.3118812,62.511896 64.3118812,60.289604 C64.3118812,58.0673119 62.511896,56.2673267 60.289604,56.2673267 C58.0673119,56.2673267 56.2673267,58.0673119 56.2673267,60.289604 C56.2673267,62.511896 58.0673119,64.3118812 60.289604,64.3118812 Z M30.8516832,45.8473762 L33.3153119,55.0432673 C33.8960257,54.2488515 34.5370545,53.4972327 35.2359653,52.8008317 C36.1133366,51.9234604 37.0359505,51.0939059 38.001297,50.3145495 L31.3069406,45.4048614 L30.8516832,45.8473762 Z M49.5228366,45.7794158 L13.3622426,10.6826337 L13.3622426,21.4900099 C13.3622426,26.6158713 17.2261386,31.7542178 21.3591733,34.7860495 L41.0631832,49.236 C42.5036733,50.2918317 43.8612079,51.4557822 45.1231733,52.7178119 C45.827104,53.4217426 46.4731782,54.1783812 47.0563762,54.9803267 L49.5228366,45.7794158 Z M42.1598168,34.8690693 L49.3973416,41.9103069 L59.0006089,34.8690693 C63.1335149,31.837302 66.9949653,26.6964455 66.9949653,21.5730297 L66.9949653,10.7630792 L42.1598168,34.8690693 Z M40.1782822,44.8595965 C39.0713658,44.8595965 38.1782822,43.9636153 38.1782822,42.861468 C38.1782822,41.7555873 39.0713561,40.8595965 40.1782822,40.8595965 C41.2852082,40.8595965 42.1782822,41.7555777 42.1782822,42.861468 C42.1782822,43.9636057 41.2852082,44.8595965 40.1782822,44.8595965 Z" id="Shape" fill="#000000" fill-rule="nonzero"></path>
        </g>
    </g>
</svg>