<?xml version="1.0" encoding="UTF-8"?>
<svg width="80px" height="80px" viewBox="0 0 80 80" version="1.1" xmlns="http://www.w3.org/2000/svg" xmlns:xlink="http://www.w3.org/1999/xlink">
    <title>Icon-Rock</title>
    <g id="Symbols" stroke="none" stroke-width="1" fill="none" fill-rule="evenodd">
        <g id="icon-rock" transform="translate(5.000000, 10.000000)">
            <polygon id="Path" fill="#FFFFFF" points="31.7787336 32.5622741 38.4314769 47.3278138 29.7227594 56.7831804 19.2773386 51.1490038 17.521875 45.4764158 11.0605121 43.553532 7.36086472 29.1362925 18.8534877 18.8333487 19.8050696 10.3028033 32.1915944 6.06203809 32.1505792 21.8205142 34.9724248 25.2904547"></polygon>
            <path d="M31.7787336,32.5622741 L38.4314769,47.3278138 L29.7227594,56.7831804 L19.2773386,51.1490038 L17.521875,45.4764158 L11.0605121,43.553532 L7.36086472,29.1362925 L18.8534877,18.8333487 L19.8050696,10.3028033 L32.1915944,6.06203809 L32.1505792,21.8205142 L34.9724248,25.2904547 L31.7787336,32.5622741 Z M11.0796922,56.9482016 L8.93047786,52.4386273 L2.19023438,50.7105388 L0,55.9332858 L1.34533269,59.5540627 L7.99534599,60.7665125 L11.0796922,56.9482016 Z M5.13787028,16.0166115 L9.499229,17.182434 L11.4187728,15.3912161 L11.7140894,11.6359644 L7.13944028,10.7581918 L4.46249492,12.8511528 L5.13787028,16.0166115 Z M43.8591477,61 L62.1193842,53.4757332 L70,22.7424563 L57.3152746,4.37243115 L37.2777346,0 L16.0396921,7.2714683 L14.9733099,16.8419986 L2.80518561,27.7453389 L7.7024654,46.8119644 L14.2813586,48.7705209 L15.8837318,53.9575952 L28.6832574,60.8590648 L43.8591477,61 Z" id="Shape" fill="#000000" fill-rule="nonzero"></path>
        </g>
    </g>
</svg>