<?xml version="1.0" encoding="UTF-8"?>
<svg width="80px" height="80px" viewBox="0 0 80 80" version="1.1" xmlns="http://www.w3.org/2000/svg" xmlns:xlink="http://www.w3.org/1999/xlink">
    <title>Icon-Paper</title>
    <g id="Symbols" stroke="none" stroke-width="1" fill="none" fill-rule="evenodd">
        <g id="Icon-Paper">
            <polygon id="Path" fill="#FFFFFF" points="32.9012455 13.7706249 47.0310813 18.1089084 47.0310813 67.2489449 32.9012455 62.9106614"></polygon>
            <path d="M68.9323268,8 C62.353122,10.1498545 55.746364,12.2224188 49.1505567,14.3225363 C43.0432884,12.3962158 36.8809137,10.6383229 30.7817701,8.6843786 C23.9238543,10.8756335 16.8921415,13.1606399 11,15.0069149 L11,73 C17.5847154,70.8970565 24.1725394,68.7996944 30.7598689,66.6995062 C36.886495,68.5899369 43.0266858,70.4417226 49.1505567,72.3376639 C56.2847108,70.0470763 62.5823786,68.0021358 68.9323268,66.0151276 L68.9323268,8 L68.9323268,8 Z M32.9012455,13.7706249 L47.0310813,18.1089084 L47.0310813,67.2489449 L32.9012455,62.9106614 L32.9012455,13.7706249 Z" id="Shape" fill="#000000" fill-rule="nonzero"></path>
        </g>
    </g>
</svg>